<svg width="24" height="24" viewBox="0 0 24 24" fill="none" xmlns="http://www.w3.org/2000/svg">
<path fill-rule="evenodd" clip-rule="evenodd" d="M9 17C9 16.4477 9.44772 16 10 16H10.01C10.5623 16 11.01 16.4477 11.01 17C11.01 17.5523 10.5623 18 10.01 18H10C9.44772 18 9 17.5523 9 17Z" fill="white"/>
<path fill-rule="evenodd" clip-rule="evenodd" d="M10 6C10.5523 6 11 6.44772 11 7V13C11 13.5523 10.5523 14 10 14C9.44772 14 9 13.5523 9 13V7C9 6.44772 9.44772 6 10 6Z" fill="white"/>
<path fill-rule="evenodd" clip-rule="evenodd" d="M13 7C13 6.44772 13.4477 6 14 6H16C16.7956 6 17.5587 6.31607 18.1213 6.87868C18.6839 7.44129 19 8.20435 19 9V15C19 15.7957 18.6839 16.5587 18.1213 17.1213C17.5587 17.6839 16.7957 18 16 18H14C13.4477 18 13 17.5523 13 17C13 16.4477 13.4477 16 14 16H16C16.2652 16 16.5196 15.8946 16.7071 15.7071C16.8946 15.5196 17 15.2652 17 15V9C17 8.73478 16.8946 8.48043 16.7071 8.29289C16.5196 8.10536 16.2652 8 16 8H14C13.4477 8 13 7.55228 13 7Z" fill="white"/>
<path fill-rule="evenodd" clip-rule="evenodd" d="M22 10C22.5523 10 23 10.4477 23 11V13C23 13.5523 22.5523 14 22 14C21.4477 14 21 13.5523 21 13V11C21 10.4477 21.4477 10 22 10Z" fill="white"/>
<path fill-rule="evenodd" clip-rule="evenodd" d="M1.87868 6.87868C2.44129 6.31607 3.20435 6 4 6H6C6.55228 6 7 6.44772 7 7C7 7.55228 6.55228 8 6 8H4C3.73478 8 3.48043 8.10536 3.29289 8.29289C3.10536 8.48043 3 8.73478 3 9V15C3 15.2652 3.10536 15.5196 3.29289 15.7071C3.48043 15.8946 3.73478 16 4 16H6C6.55228 16 7 16.4477 7 17C7 17.5523 6.55228 18 6 18H4C3.20435 18 2.44129 17.6839 1.87868 17.1213C1.31607 16.5587 1 15.7956 1 15V9C1 8.20435 1.31607 7.44129 1.87868 6.87868Z" fill="white"/>
</svg>
