<svg width="24" height="24" viewBox="0 0 24 24" fill="none" xmlns="http://www.w3.org/2000/svg">
<path fill-rule="evenodd" clip-rule="evenodd" d="M6.88212 2.95203C7.28757 2.77646 7.75857 2.96282 7.93413 3.36827L9.52537 7.04308H11C11.4418 7.04308 11.8 7.40125 11.8 7.84308C11.8 8.28491 11.4418 8.64308 11 8.64308L4.8 8.64308C4.35818 8.64308 4 8.28491 4 7.84308C4 7.40125 4.35818 7.04308 4.8 7.04308L7.78182 7.04308L6.46587 4.00405C6.29031 3.5986 6.47667 3.12759 6.88212 2.95203ZM11.6 2.99334C11.9826 2.77243 12.4719 2.90353 12.6928 3.28616L14.1837 5.86848L16.1576 3.20933C16.421 2.85456 16.9221 2.78045 17.2768 3.0438C17.6316 3.30714 17.7057 3.80822 17.4424 4.16299L15.0555 7.37845L15.7928 8.65552C16.0137 9.03815 15.8826 9.52743 15.5 9.74834C15.1174 9.96925 14.6281 9.83815 14.4072 9.45552L11.3072 4.08616C11.0863 3.70353 11.2174 3.21425 11.6 2.99334ZM19.6 7.15026C19.9826 7.37117 20.1137 7.86044 19.8928 8.24308L18.4019 10.8254L21.6918 11.2053C22.1307 11.256 22.4454 11.6529 22.3947 12.0918C22.344 12.5307 21.9471 12.8454 21.5082 12.7947L17.5301 12.3354L16.7928 13.6124C16.5719 13.9951 16.0826 14.1262 15.7 13.9053C15.3174 13.6843 15.1863 13.1951 15.4072 12.8124L18.5072 7.44308C18.7281 7.06044 19.2174 6.92934 19.6 7.15026ZM8.3 10.0947C8.68264 10.3157 8.81374 10.8049 8.59282 11.1876L5.49282 16.5569C5.27191 16.9396 4.78264 17.0707 4.4 16.8497C4.01737 16.6288 3.88627 16.1396 4.10718 15.7569L5.59809 13.1746L2.30824 12.7947C1.86933 12.744 1.5546 12.3471 1.60529 11.9082C1.65597 11.4693 2.05286 11.1546 2.49177 11.2053L6.46987 11.6646L7.20718 10.3876C7.4281 10.0049 7.91737 9.87383 8.3 10.0947ZM8.5 14.2517C8.88264 14.0308 9.37191 14.1619 9.59282 14.5445L12.6928 19.9138C12.9137 20.2965 12.7826 20.7857 12.4 21.0067C12.0174 21.2276 11.5281 21.0965 11.3072 20.7138L9.81628 18.1315L7.84237 20.7907C7.57902 21.1454 7.07794 21.2196 6.72317 20.9562C6.3684 20.6929 6.29429 20.1918 6.55764 19.837L8.9445 16.6216L8.20718 15.3445C7.98627 14.9619 8.11737 14.4726 8.5 14.2517ZM12.2 16.1569C12.2 15.7151 12.5582 15.3569 13 15.3569H19.2C19.6418 15.3569 20 15.7151 20 16.1569C20 16.5988 19.6418 16.9569 19.2 16.9569H16.2182L17.5341 19.996C17.7097 20.4014 17.5233 20.8724 17.1179 21.048C16.7124 21.2235 16.2414 21.0372 16.0659 20.6317L14.4746 16.9569H13C12.5582 16.9569 12.2 16.5988 12.2 16.1569Z" fill="white"/>
</svg>
