<svg width="24" height="24" viewBox="0 0 24 24" fill="none" xmlns="http://www.w3.org/2000/svg">
<path d="M6 3C5.44772 3 5 3.44772 5 4V5H6C6.55228 5 7 5.44772 7 6C7 6.55228 6.55228 7 6 7H5V9H6C6.55228 9 7 9.44771 7 10C7 10.5523 6.55228 11 6 11H5V13H6C6.55228 13 7 13.4477 7 14C7 14.5523 6.55228 15 6 15H5V17H6C6.55228 17 7 17.4477 7 18C7 18.5523 6.55228 19 6 19H5V20C5 20.5523 5.44772 21 6 21H11C11.5523 21 12 21.4477 12 22C12 22.5523 11.5523 23 11 23H6C4.34315 23 3 21.6569 3 20V19H2C1.44772 19 1 18.5523 1 18C1 17.4477 1.44772 17 2 17H3V15H2C1.44772 15 1 14.5523 1 14C1 13.4477 1.44772 13 2 13H3V11H2C1.44772 11 1 10.5523 1 10C1 9.44771 1.44772 9 2 9H3V7H2C1.44772 7 1 6.55228 1 6C1 5.44772 1.44772 5 2 5H3V4C3 2.34315 4.34315 1 6 1H18C19.6569 1 21 2.34315 21 4V12C21 12.5523 20.5523 13 20 13C19.4477 13 19 12.5523 19 12V4C19 3.44772 18.5523 3 18 3H17V11C17 11.5523 16.5523 12 16 12C15.4477 12 15 11.5523 15 11V3H6Z" fill="white"/>
<path fill-rule="evenodd" clip-rule="evenodd" d="M17 14C14.7909 14 13 15.7909 13 18C13 20.2091 14.7909 22 17 22C17.7418 22 18.4365 21.7981 19.032 21.4462L20.2929 22.7071C20.6834 23.0976 21.3166 23.0976 21.7071 22.7071C22.0976 22.3166 22.0976 21.6834 21.7071 21.2929L20.4462 20.032C20.7981 19.4365 21 18.7418 21 18C21 15.7909 19.2091 14 17 14ZM15 18C15 16.8954 15.8954 16 17 16C18.1046 16 19 16.8954 19 18C19 19.1046 18.1046 20 17 20C15.8954 20 15 19.1046 15 18Z" fill="white"/>
</svg>
