<svg width="24" height="24" viewBox="0 0 24 24" fill="none" xmlns="http://www.w3.org/2000/svg">
<path fill-rule="evenodd" clip-rule="evenodd" d="M6.00314 14.9885C5.21998 14.9643 4.45545 15.23 3.85619 15.7348C3.32942 16.1775 2.94263 16.7874 2.65615 17.3739C2.36396 17.9721 2.14192 18.6176 1.97606 19.1975C1.80929 19.7805 1.69338 20.3183 1.61911 20.7094C1.57767 20.9277 1.53852 21.1469 1.50887 21.3671C1.46758 21.676 1.57256 21.9868 1.79289 22.2071C2.01322 22.4274 2.32451 22.5324 2.63336 22.4911L2.63455 22.4909C2.85429 22.461 3.07278 22.4222 3.2906 22.3809C3.68174 22.3066 4.21948 22.1907 4.80251 22.0239C5.38235 21.8581 6.02789 21.636 6.62608 21.3439C7.21238 21.0575 7.82205 20.6708 8.26473 20.1444C9.28576 18.9352 9.301 17.0518 8.11259 15.8784L8.10044 15.8666C7.53345 15.3254 6.78657 15.0127 6.00314 14.9885ZM3.77045 20.2296C3.92549 20.1911 4.08723 20.1483 4.25249 20.1011C4.76514 19.9544 5.29085 19.7702 5.74829 19.5468C6.21718 19.3177 6.54705 19.0797 6.73429 18.8568C7.1008 18.4218 7.12716 17.7231 6.71326 17.3074C6.50365 17.1103 6.22913 16.9965 5.94131 16.9875C5.65147 16.9786 5.36493 17.0791 5.14319 17.2657C4.92028 17.4529 4.68226 17.7828 4.45322 18.2517C4.22979 18.7091 4.04558 19.2349 3.89894 19.7475C3.85167 19.9128 3.80891 20.0745 3.77045 20.2296Z" fill="white"/>
<path fill-rule="evenodd" clip-rule="evenodd" d="M20.9589 3.0387C19.2916 3.17405 17.6675 3.6604 16.1949 4.47031C14.419 5.44705 12.9226 6.86189 11.8478 8.58026L11.8422 8.58924L11.8422 8.58921C11.1968 9.5972 10.639 10.6582 10.1747 11.7605L11.7071 13.2929C12.0976 13.6834 12.0976 14.3166 11.7071 14.7071C11.3166 15.0976 10.6834 15.0976 10.2929 14.7071L8.29289 12.7071C8.01326 12.4275 7.92469 12.0093 8.06691 11.6403C8.62262 10.1987 9.32218 8.81663 10.155 7.51522C11.4104 5.5096 13.1578 3.8582 15.2311 2.71788C17.3059 1.5767 19.6383 0.985336 22.0062 1.00002C22.5561 1.00343 23 1.45014 23 2C23 4.21791 22.5135 7.7643 19.762 11.002C19.4044 11.4228 18.7733 11.474 18.3524 11.1164C17.9316 10.7587 17.8804 10.1277 18.238 9.70681C20.1909 7.4088 20.8085 4.92483 20.9589 3.0387Z" fill="white"/>
<path d="M6.5547 8.83205C6.77124 8.68769 7.10435 8.58115 7.55943 8.53875C8.0061 8.49713 8.50137 8.52355 8.981 8.58557C9.45669 8.64709 9.89066 8.7401 10.2069 8.81839C10.3642 8.85731 10.4901 8.89205 10.575 8.9165C10.615 8.92804 10.655 8.9398 10.6948 8.9523L11.3046 7.04752C11.2462 7.02906 11.1875 7.01161 11.1286 6.99465C11.0225 6.9641 10.8721 6.92268 10.6875 6.87699C10.3201 6.78604 9.80874 6.67596 9.23751 6.60209C8.67022 6.52873 8.01703 6.48745 7.37389 6.54737C6.73916 6.60651 6.0411 6.77075 5.4453 7.16795C4.42761 7.84641 3.83899 9.12784 3.51485 10.0227C3.34065 10.5036 3.21726 10.948 3.13736 11.2713C3.09239 11.4533 3.05113 11.6362 3.01627 11.8203C2.96368 12.1105 3.04351 12.4149 3.23269 12.6413C3.42269 12.8686 3.70372 13 4 13H9V11H5.29353C5.32493 10.9036 5.35883 10.8045 5.39529 10.7039C5.70785 9.84093 6.11923 9.12236 6.5547 8.83205Z" fill="white"/>
<path fill-rule="evenodd" clip-rule="evenodd" d="M17 13C14.7909 13 13 14.7909 13 17C13 19.2091 14.7909 21 17 21C17.7418 21 18.4365 20.7981 19.032 20.4462L20.2929 21.7071C20.6834 22.0976 21.3166 22.0976 21.7071 21.7071C22.0976 21.3166 22.0976 20.6834 21.7071 20.2929L20.4462 19.032C20.7981 18.4365 21 17.7418 21 17C21 14.7909 19.2091 13 17 13ZM15 17C15 15.8954 15.8954 15 17 15C18.1046 15 19 15.8954 19 17C19 18.1046 18.1046 19 17 19C15.8954 19 15 18.1046 15 17Z" fill="white"/>
</svg>
