<svg width="24" height="24" viewBox="0 0 24 24" fill="none" xmlns="http://www.w3.org/2000/svg">
<path d="M10.9434 3.12377C10.3621 2.88302 9.59755 2.98696 9.09055 3.49304L5.70226 6.8813C5.6266 6.95727 5.52167 6.99961 5.41437 6.99923H3.00049C1.90775 6.99923 0.999974 7.90699 1 8.99973V15.0012C1.00002 16.0939 1.90778 16.9943 3.00049 16.9943H5.41437C5.52167 16.994 5.62664 17.0363 5.70226 17.1122C5.70225 17.1148 5.70225 17.116 5.70226 17.1198L9.08317 20.5007C9.59025 21.0087 10.3611 21.1111 10.9434 20.8699C11.5257 20.6288 12 20.0154 11.999 19.2976V4.69626C11.998 3.97996 11.5247 3.36445 10.9434 3.12377ZM9.99852 5.41216V18.5888L7.11959 15.7025C6.66765 15.2479 6.0554 14.9993 5.41437 15.0012H3.00049V8.99976H5.41437C6.0554 9.00165 6.66765 8.74577 7.11959 8.29109L9.99852 5.41216Z" fill="white"/>
<path d="M16.1403 8.01056C16.01 7.99065 15.877 7.9967 15.7491 8.02835C15.6211 8.06 15.5007 8.11663 15.3947 8.19499C15.2893 8.27385 15.2006 8.37276 15.1335 8.486C15.0665 8.59924 15.0224 8.72459 15.0039 8.85489C14.9854 8.98519 14.9927 9.11788 15.0256 9.24532C15.0585 9.37276 15.1162 9.49246 15.1954 9.59755C16.2648 11.0233 16.2648 12.97 15.1954 14.3958C15.1162 14.5009 15.0585 14.6206 15.0256 14.748C14.9927 14.8754 14.9854 15.0081 15.0039 15.1384C15.0224 15.2687 15.0664 15.3941 15.1335 15.5074C15.2006 15.6206 15.2893 15.7195 15.3947 15.7984C15.4998 15.8776 15.6195 15.9353 15.7469 15.9682C15.8744 16.0011 16.007 16.0085 16.1373 15.9899C16.2676 15.9714 16.393 15.9274 16.5063 15.8603C16.6195 15.7933 16.7184 15.7045 16.7973 15.5992C18.3946 13.4694 18.3946 10.5242 16.7973 8.39445C16.6374 8.18492 16.4013 8.04694 16.1403 8.01056Z" fill="white"/>
<path d="M18.6575 4.92493C18.5642 5.01785 18.4901 5.12827 18.4396 5.24988C18.3891 5.37149 18.3631 5.5019 18.3631 5.63359C18.3631 5.76529 18.3891 5.89567 18.4396 6.01728C18.4901 6.13889 18.5642 6.24934 18.6575 6.34226C21.7901 9.47484 21.7901 14.5187 18.6575 17.6513C18.5642 17.7442 18.4901 17.8546 18.4396 17.9763C18.3891 18.0979 18.3631 18.2283 18.3631 18.36C18.3631 18.4917 18.3891 18.6221 18.4396 18.7437C18.4901 18.8653 18.5642 18.9757 18.6575 19.0686C18.8449 19.2549 19.0983 19.3594 19.3625 19.3594C19.6266 19.3594 19.8801 19.2549 20.0674 19.0686C23.9644 15.1718 23.9644 8.82181 20.0674 4.92493C19.8801 4.7387 19.6266 4.63416 19.3625 4.63416C19.0983 4.63416 18.8449 4.7387 18.6575 4.92493Z" fill="white"/>
</svg>
