<svg width="24" height="24" viewBox="0 0 24 24" fill="none" xmlns="http://www.w3.org/2000/svg">
<path fill-rule="evenodd" clip-rule="evenodd" d="M15.4 8.2C15.8418 7.86863 16.4686 7.95817 16.8 8.4C17.5789 9.43857 18 10.7018 18 12C18 13.2982 17.5789 14.5614 16.8 15.6C16.4686 16.0418 15.8418 16.1314 15.4 15.8C14.9582 15.4686 14.8686 14.8418 15.2 14.4C15.7193 13.7076 16 12.8655 16 12C16 11.1345 15.7193 10.2924 15.2 9.6C14.8686 9.15817 14.9582 8.53137 15.4 8.2Z" fill="white"/>
<path d="M10.9434 3.12377C10.3621 2.88302 9.59755 2.98696 9.09055 3.49304L5.70226 6.8813C5.6266 6.95727 5.52167 6.99961 5.41437 6.99923H3.00049C1.90775 6.99923 0.999974 7.90699 1 8.99973V15.0012C1.00002 16.0939 1.90778 16.9943 3.00049 16.9943H5.41437C5.52167 16.994 5.62664 17.0363 5.70226 17.1122C5.70225 17.1148 5.70225 17.116 5.70226 17.1198L9.08317 20.5007C9.59025 21.0087 10.3611 21.1111 10.9434 20.8699C11.5257 20.6288 12 20.0154 11.999 19.2976V4.69626C11.998 3.97996 11.5247 3.36445 10.9434 3.12377ZM9.99852 5.41216V18.5888L7.11959 15.7025C6.66765 15.2479 6.0554 14.9993 5.41437 15.0012H3.00049V8.99976H5.41437C6.0554 9.00165 6.66765 8.74577 7.11959 8.29109L9.99852 5.41216Z" fill="white"/>
</svg>
