<svg width="24" height="24" viewBox="0 0 24 24" fill="none" xmlns="http://www.w3.org/2000/svg">
<path fill-rule="evenodd" clip-rule="evenodd" d="M17.0738 4.38503C15.8958 3.83499 14.2727 3.80314 12.6282 4.7607C12.1509 5.03861 11.5387 4.87698 11.2608 4.39971C10.9829 3.92244 11.1446 3.31025 11.6218 3.03235C13.8023 1.76272 16.1167 1.73087 17.92 2.57283C19.7156 3.41126 21 5.12921 21 7.2373C21 8.68719 20.4181 10.0756 19.3855 11.0977C19.1642 11.3168 18.9261 11.5151 18.6742 11.6917C18.9261 11.8682 19.1642 12.0666 19.3855 12.2856C20.4181 13.3077 21 14.6961 21 16.146C21 18.5415 19.6462 20.5721 17.5944 21.486C15.5258 22.4075 12.8957 22.1396 10.4039 20.2897C9.96049 19.9605 9.86789 19.3341 10.1971 18.8907C10.5263 18.4473 11.1527 18.3547 11.5961 18.6839C13.6044 20.1748 15.4742 20.241 16.7806 19.6591C18.1039 19.0696 19 17.7595 19 16.146C19 15.2332 18.6338 14.3556 17.9785 13.707C17.3229 13.058 16.4316 12.6917 15.5 12.6917C14.9477 12.6917 14.5 12.2439 14.5 11.6917C14.5 11.1394 14.9477 10.6917 15.5 10.6917C16.4315 10.6917 17.3229 10.3253 17.9785 9.67631C18.6338 9.02768 19 8.15014 19 7.2373C19 6.00462 18.2594 4.93859 17.0738 4.38503Z" fill="white"/>
<circle cx="4.5" cy="8.5" r="1.5" fill="white"/>
<circle cx="4.5" cy="18.5" r="1.5" fill="white"/>
</svg>
