<svg width="24" height="24" viewBox="0 0 24 24" fill="none" xmlns="http://www.w3.org/2000/svg">
<path fill-rule="evenodd" clip-rule="evenodd" d="M21.6464 2.23698C21.8707 2.42698 22 2.70605 22 3V8.5C22 9.05228 21.5523 9.5 21 9.5C20.4477 9.5 20 9.05228 20 8.5V4.18046L10 5.84713V18C10 20.2091 8.20914 22 6 22C3.79086 22 2 20.2091 2 18C2 15.7909 3.79086 14 6 14C6.72857 14 7.41165 14.1948 8 14.5351V5C8 4.51116 8.35341 4.09397 8.8356 4.01361L20.8356 2.01361C21.1256 1.96528 21.4221 2.04698 21.6464 2.23698ZM8 18C8 16.8954 7.10457 16 6 16C4.89543 16 4 16.8954 4 18C4 19.1046 4.89543 20 6 20C7.10457 20 8 19.1046 8 18Z" fill="white"/>
<path fill-rule="evenodd" clip-rule="evenodd" d="M16 12C16.5523 12 17 12.4477 17 13V22C17 22.5523 16.5523 23 16 23C15.4477 23 15 22.5523 15 22V13C15 12.4477 15.4477 12 16 12ZM22 12C22.5523 12 23 12.4477 23 13V22C23 22.5523 22.5523 23 22 23C21.4477 23 21 22.5523 21 22V13C21 12.4477 21.4477 12 22 12Z" fill="white"/>
</svg>
