<svg width="24" height="24" viewBox="0 0 24 24" fill="none" xmlns="http://www.w3.org/2000/svg">
<path fill-rule="evenodd" clip-rule="evenodd" d="M20.9592 3.03868C19.2917 3.174 17.6676 3.66036 16.1949 4.47031C14.419 5.44705 12.9226 6.86189 11.8478 8.58026L11.8422 8.58924L11.8422 8.58921C11.1968 9.5972 10.639 10.6582 10.1747 11.7605L12.242 13.8277C13.3576 13.3645 14.4322 12.8073 15.4542 12.162C19.6794 9.3238 20.7549 5.61275 20.9592 3.03868ZM15.2311 2.71788C17.3059 1.5767 19.6383 0.985336 22.0062 1.00002C22.5561 1.00343 23 1.45014 23 2C23 4.91618 22.1511 10.0797 16.5569 13.8306C16.5495 13.8356 16.542 13.8404 16.5345 13.8452C15.2148 14.6797 13.8148 15.3797 12.3555 15.9347C11.9874 16.0747 11.5714 15.9856 11.2929 15.7071L8.29289 12.7071C8.01327 12.4275 7.92469 12.0093 8.06692 11.6403C8.62262 10.1987 9.32218 8.81663 10.155 7.51522C11.4104 5.5096 13.1578 3.8582 15.2311 2.71788Z" fill="white"/>
<path d="M16.8321 18.5547C17.2287 17.9597 17.3924 17.2619 17.4513 16.6279C17.5111 15.9852 17.4699 15.3321 17.3968 14.7647C17.3232 14.1933 17.2134 13.6817 17.1228 13.314C17.0773 13.1293 17.036 12.9788 17.0055 12.8726C16.9886 12.8136 16.9713 12.7546 16.9527 12.6961L15.0473 13.304C15.0598 13.3439 15.0715 13.384 15.0831 13.4242C15.1075 13.5092 15.1421 13.6354 15.181 13.7928C15.2591 14.1096 15.3518 14.5442 15.4132 15.0203C15.4751 15.5004 15.5014 15.9961 15.4599 16.4428C15.4176 16.8976 15.3115 17.2297 15.1684 17.4447C14.877 17.8795 14.1578 18.2908 13.2953 18.6037C13.1949 18.6401 13.0961 18.6739 13 18.7053V15H11V20C11 20.2965 11.1316 20.5777 11.3591 20.7677C11.5867 20.9577 11.8878 21.0367 12.1795 20.9838L12.1807 20.9835C12.3649 20.9496 12.5476 20.9071 12.7293 20.862C13.0525 20.7818 13.4966 20.6582 13.9772 20.4838C14.8717 20.1594 16.1522 19.5709 16.8312 18.556L16.8321 18.5547Z" fill="white"/>
<path fill-rule="evenodd" clip-rule="evenodd" d="M6.00314 14.9885C5.21998 14.9643 4.45545 15.23 3.85619 15.7348C3.32942 16.1775 2.94263 16.7874 2.65615 17.3739C2.36396 17.9721 2.14192 18.6176 1.97606 19.1975C1.80929 19.7805 1.69338 20.3183 1.61911 20.7094C1.57767 20.9277 1.53852 21.1469 1.50887 21.3671C1.46758 21.676 1.57256 21.9868 1.79289 22.2071C2.01322 22.4274 2.32451 22.5324 2.63336 22.4911L2.63455 22.4909C2.85429 22.461 3.07278 22.4222 3.2906 22.3809C3.68174 22.3066 4.21948 22.1907 4.80251 22.0239C5.38235 21.8581 6.02789 21.636 6.62608 21.3439C7.21238 21.0575 7.82205 20.6708 8.26473 20.1444C9.28576 18.9352 9.301 17.0518 8.11259 15.8784L8.10044 15.8666C7.53345 15.3254 6.78657 15.0127 6.00314 14.9885ZM3.77045 20.2296C3.92549 20.1911 4.08723 20.1483 4.25249 20.1011C4.76514 19.9544 5.29085 19.7702 5.74829 19.5468C6.21718 19.3177 6.54705 19.0797 6.73429 18.8568C7.1008 18.4218 7.12716 17.7231 6.71326 17.3074C6.50365 17.1103 6.22913 16.9965 5.94131 16.9875C5.65147 16.9786 5.36493 17.0791 5.14319 17.2657C4.92028 17.4529 4.68226 17.7828 4.45322 18.2517C4.22979 18.7091 4.04558 19.2349 3.89894 19.7475C3.85167 19.9128 3.80891 20.0745 3.77045 20.2296Z" fill="white"/>
<path d="M6.5547 8.83205C6.77124 8.68769 7.10435 8.58115 7.55943 8.53875C8.0061 8.49713 8.50137 8.52355 8.981 8.58557C9.45669 8.64709 9.89066 8.7401 10.2069 8.81839C10.3642 8.85731 10.4901 8.89205 10.575 8.9165C10.615 8.92804 10.655 8.9398 10.6948 8.9523L11.3046 7.04752C11.2462 7.02906 11.1875 7.01161 11.1286 6.99465C11.0225 6.9641 10.8721 6.92268 10.6875 6.87699C10.3201 6.78604 9.80874 6.67596 9.23751 6.60209C8.67022 6.52873 8.01703 6.48745 7.37389 6.54737C6.73916 6.60651 6.0411 6.77075 5.4453 7.16795C4.42761 7.84641 3.83899 9.12784 3.51485 10.0227C3.34065 10.5036 3.21726 10.948 3.13736 11.2713C3.09239 11.4533 3.05113 11.6362 3.01627 11.8203C2.96368 12.1105 3.04351 12.4149 3.23269 12.6413C3.42269 12.8686 3.70372 13 4 13H9V11H5.29353C5.32493 10.9036 5.35883 10.8045 5.39529 10.7039C5.70785 9.84093 6.11923 9.12236 6.5547 8.83205Z" fill="white"/>
</svg>
