<svg width="24" height="24" viewBox="0 0 24 24" fill="none" xmlns="http://www.w3.org/2000/svg">
<path fill-rule="evenodd" clip-rule="evenodd" d="M2 6C2 5.44772 2.44772 5 3 5H21C21.5523 5 22 5.44772 22 6C22 6.55228 21.5523 7 21 7H3C2.44772 7 2 6.55228 2 6Z" fill="white"/>
<path fill-rule="evenodd" clip-rule="evenodd" d="M2 12C2 11.4477 2.44772 11 3 11H10C10.5523 11 11 11.4477 11 12C11 12.5523 10.5523 13 10 13H3C2.44772 13 2 12.5523 2 12Z" fill="white"/>
<path fill-rule="evenodd" clip-rule="evenodd" d="M2 18C2 17.4477 2.44772 17 3 17H10C10.5523 17 11 17.4477 11 18C11 18.5523 10.5523 19 10 19H3C2.44772 19 2 18.5523 2 18Z" fill="white"/>
<path fill-rule="evenodd" clip-rule="evenodd" d="M17 13C15.8954 13 15 13.8954 15 15C15 16.1046 15.8954 17 17 17C18.1046 17 19 16.1046 19 15C19 13.8954 18.1046 13 17 13ZM13 15C13 12.7909 14.7909 11 17 11C19.2091 11 21 12.7909 21 15C21 17.2091 19.2091 19 17 19C14.7909 19 13 17.2091 13 15Z" fill="white"/>
<path fill-rule="evenodd" clip-rule="evenodd" d="M18.7929 16.7929C19.1834 16.4024 19.8166 16.4024 20.2071 16.7929L21.7071 18.2929C22.0976 18.6834 22.0976 19.3166 21.7071 19.7071C21.3166 20.0976 20.6834 20.0976 20.2929 19.7071L18.7929 18.2071C18.4024 17.8166 18.4024 17.1834 18.7929 16.7929Z" fill="white"/>
</svg>
