<svg width="24" height="24" viewBox="0 0 24 24" fill="none" xmlns="http://www.w3.org/2000/svg">
<path d="M10.9434 3.12377C10.3621 2.88302 9.59755 2.98696 9.09055 3.49304L5.70226 6.8813C5.6266 6.95727 5.52167 6.99961 5.41437 6.99923H3.00049C1.90775 6.99923 0.999974 7.90699 1 8.99973V15.0012C1.00002 16.0939 1.90778 16.9943 3.00049 16.9943H5.41437C5.52167 16.994 5.62664 17.0363 5.70226 17.1122C5.70225 17.1148 5.70225 17.116 5.70226 17.1198L9.08317 20.5007C9.59025 21.0087 10.3611 21.1111 10.9434 20.8699C11.5257 20.6288 12 20.0154 11.999 19.2976V4.69626C11.998 3.97996 11.5247 3.36445 10.9434 3.12377ZM9.99852 5.41216V18.5888L7.11959 15.7025C6.66765 15.2479 6.0554 14.9993 5.41437 15.0012H3.00049V8.99976H5.41437C6.0554 9.00165 6.66765 8.74577 7.11959 8.29109L9.99852 5.41216Z" fill="white"/>
<path fill-rule="evenodd" clip-rule="evenodd" d="M15.2929 8.29289C15.6834 7.90237 16.3166 7.90237 16.7071 8.29289L19 10.5858L21.2929 8.29289C21.6834 7.90237 22.3166 7.90237 22.7071 8.29289C23.0976 8.68342 23.0976 9.31658 22.7071 9.70711L20.4142 12L22.7071 14.2929C23.0976 14.6834 23.0976 15.3166 22.7071 15.7071C22.3166 16.0976 21.6834 16.0976 21.2929 15.7071L19 13.4142L16.7071 15.7071C16.3166 16.0976 15.6834 16.0976 15.2929 15.7071C14.9024 15.3166 14.9024 14.6834 15.2929 14.2929L17.5858 12L15.2929 9.70711C14.9024 9.31658 14.9024 8.68342 15.2929 8.29289Z" fill="white"/>
</svg>
